<mxfile host="Electron" agent="Mozilla/5.0 (Windows NT 10.0; Win64; x64) AppleWebKit/537.36 (KHTML, like Gecko) draw.io/27.0.9 Chrome/134.0.6998.205 Electron/35.4.0 Safari/537.36" version="27.0.9">
  <diagram name="Pagina-1" id="8QW8s8eIHRF5mrPKf5NI">
    <mxGraphModel dx="1042" dy="722" grid="1" gridSize="10" guides="1" tooltips="1" connect="1" arrows="1" fold="1" page="1" pageScale="1" pageWidth="827" pageHeight="1169" math="0" shadow="0">
      <root>
        <mxCell id="0" />
        <mxCell id="1" parent="0" />
        <mxCell id="UMm1ady6yWFBfkZKAYd2-1" value="EnteLocale" style="swimlane;fontStyle=1;align=center;verticalAlign=top;childLayout=stackLayout;horizontal=1;startSize=26;horizontalStack=0;resizeParent=1;resizeParentMax=0;resizeLast=0;collapsible=1;marginBottom=0;whiteSpace=wrap;html=1;fillColor=#7EA6E0;swimlaneFillColor=#E6E6E6;strokeColor=none;fontColor=#FFFFFF;" parent="1" vertex="1">
          <mxGeometry x="40" y="50" width="240" height="140" as="geometry" />
        </mxCell>
        <mxCell id="UMm1ady6yWFBfkZKAYd2-2" value="- username: String&lt;div&gt;- password: String&lt;/div&gt;&lt;div&gt;- destinatari: String[]&lt;/div&gt;" style="text;strokeColor=none;fillColor=none;align=left;verticalAlign=top;spacingLeft=4;spacingRight=4;overflow=hidden;rotatable=0;points=[[0,0.5],[1,0.5]];portConstraint=eastwest;whiteSpace=wrap;html=1;" parent="UMm1ady6yWFBfkZKAYd2-1" vertex="1">
          <mxGeometry y="26" width="240" height="54" as="geometry" />
        </mxCell>
        <mxCell id="UMm1ady6yWFBfkZKAYd2-3" value="" style="line;strokeWidth=1;fillColor=none;align=left;verticalAlign=middle;spacingTop=-1;spacingLeft=3;spacingRight=3;rotatable=0;labelPosition=right;points=[];portConstraint=eastwest;strokeColor=#7EA6E0;dashed=1;" parent="UMm1ady6yWFBfkZKAYd2-1" vertex="1">
          <mxGeometry y="80" width="240" height="8" as="geometry" />
        </mxCell>
        <mxCell id="UMm1ady6yWFBfkZKAYd2-4" value="&lt;div&gt;+ aggiungiSensore(Sensore)&lt;/div&gt;&lt;div&gt;+ rimuoviSensore(Sensore)&lt;/div&gt;+ selezionaDestinatari(Posiione): String[]" style="text;strokeColor=none;fillColor=none;align=left;verticalAlign=top;spacingLeft=4;spacingRight=4;overflow=hidden;rotatable=0;points=[[0,0.5],[1,0.5]];portConstraint=eastwest;whiteSpace=wrap;html=1;" parent="UMm1ady6yWFBfkZKAYd2-1" vertex="1">
          <mxGeometry y="88" width="240" height="52" as="geometry" />
        </mxCell>
        <mxCell id="UMm1ady6yWFBfkZKAYd2-7" value="Messaggio" style="swimlane;fontStyle=1;align=center;verticalAlign=top;childLayout=stackLayout;horizontal=1;startSize=26;horizontalStack=0;resizeParent=1;resizeParentMax=0;resizeLast=0;collapsible=1;marginBottom=0;whiteSpace=wrap;html=1;fillColor=#7EA6E0;swimlaneFillColor=#E6E6E6;strokeColor=none;fontColor=#FFFFFF;" parent="1" vertex="1">
          <mxGeometry x="95" y="270" width="130" height="90" as="geometry" />
        </mxCell>
        <mxCell id="UMm1ady6yWFBfkZKAYd2-8" value="- messaggio: String&lt;div&gt;- prioritario: Boolean&lt;/div&gt;&lt;div&gt;&lt;br&gt;&lt;/div&gt;" style="text;strokeColor=none;fillColor=none;align=left;verticalAlign=top;spacingLeft=4;spacingRight=4;overflow=hidden;rotatable=0;points=[[0,0.5],[1,0.5]];portConstraint=eastwest;whiteSpace=wrap;html=1;" parent="UMm1ady6yWFBfkZKAYd2-7" vertex="1">
          <mxGeometry y="26" width="130" height="44" as="geometry" />
        </mxCell>
        <mxCell id="UMm1ady6yWFBfkZKAYd2-9" value="" style="line;strokeWidth=1;fillColor=none;align=left;verticalAlign=middle;spacingTop=-1;spacingLeft=3;spacingRight=3;rotatable=0;labelPosition=right;points=[];portConstraint=eastwest;strokeColor=#7EA6E0;dashed=1;" parent="UMm1ady6yWFBfkZKAYd2-7" vertex="1">
          <mxGeometry y="70" width="130" height="8" as="geometry" />
        </mxCell>
        <mxCell id="apWO-U3HZGpR7ALacPeS-3" style="line;strokeWidth=1;fillColor=none;align=left;verticalAlign=middle;spacingTop=-1;spacingLeft=3;spacingRight=3;rotatable=0;labelPosition=right;points=[];portConstraint=eastwest;strokeColor=none;dashed=1;" vertex="1" parent="UMm1ady6yWFBfkZKAYd2-7">
          <mxGeometry y="78" width="130" height="12" as="geometry" />
        </mxCell>
        <mxCell id="UMm1ady6yWFBfkZKAYd2-29" style="edgeStyle=orthogonalEdgeStyle;rounded=0;orthogonalLoop=1;jettySize=auto;html=1;entryX=0.5;entryY=0;entryDx=0;entryDy=0;endArrow=open;endFill=0;" parent="1" source="UMm1ady6yWFBfkZKAYd2-12" target="UMm1ady6yWFBfkZKAYd2-31" edge="1">
          <mxGeometry relative="1" as="geometry">
            <mxPoint x="470" y="210" as="targetPoint" />
          </mxGeometry>
        </mxCell>
        <mxCell id="UMm1ady6yWFBfkZKAYd2-12" value="Sensore" style="swimlane;fontStyle=1;align=center;verticalAlign=top;childLayout=stackLayout;horizontal=1;startSize=26;horizontalStack=0;resizeParent=1;resizeParentMax=0;resizeLast=0;collapsible=1;marginBottom=0;whiteSpace=wrap;html=1;fillColor=#7EA6E0;swimlaneFillColor=#E6E6E6;strokeColor=none;fontColor=#FFFFFF;" parent="1" vertex="1">
          <mxGeometry x="370" y="60" width="160" height="100" as="geometry" />
        </mxCell>
        <mxCell id="UMm1ady6yWFBfkZKAYd2-13" value="- idSensore: String&lt;div&gt;- livelloArgine: Float&lt;/div&gt;" style="text;strokeColor=none;fillColor=none;align=left;verticalAlign=top;spacingLeft=4;spacingRight=4;overflow=hidden;rotatable=0;points=[[0,0.5],[1,0.5]];portConstraint=eastwest;whiteSpace=wrap;html=1;" parent="UMm1ady6yWFBfkZKAYd2-12" vertex="1">
          <mxGeometry y="26" width="160" height="44" as="geometry" />
        </mxCell>
        <mxCell id="UMm1ady6yWFBfkZKAYd2-14" value="" style="line;strokeWidth=1;fillColor=none;align=left;verticalAlign=middle;spacingTop=-1;spacingLeft=3;spacingRight=3;rotatable=0;labelPosition=right;points=[];portConstraint=eastwest;strokeColor=#7EA6E0;dashed=1;" parent="UMm1ady6yWFBfkZKAYd2-12" vertex="1">
          <mxGeometry y="70" width="160" height="8" as="geometry" />
        </mxCell>
        <mxCell id="apWO-U3HZGpR7ALacPeS-1" style="line;strokeWidth=1;fillColor=none;align=left;verticalAlign=middle;spacingTop=-1;spacingLeft=3;spacingRight=3;rotatable=0;labelPosition=right;points=[];portConstraint=eastwest;strokeColor=none;" vertex="1" parent="UMm1ady6yWFBfkZKAYd2-12">
          <mxGeometry y="78" width="160" height="22" as="geometry" />
        </mxCell>
        <mxCell id="UMm1ady6yWFBfkZKAYd2-18" value="Soglie" style="swimlane;fontStyle=1;align=center;verticalAlign=top;childLayout=stackLayout;horizontal=1;startSize=26;horizontalStack=0;resizeParent=1;resizeParentMax=0;resizeLast=0;collapsible=1;marginBottom=0;whiteSpace=wrap;html=1;fillColor=#7EA6E0;swimlaneFillColor=#E6E6E6;strokeColor=none;fontColor=#FFFFFF;" parent="1" vertex="1">
          <mxGeometry x="610" y="55" width="160" height="110" as="geometry" />
        </mxCell>
        <mxCell id="UMm1ady6yWFBfkZKAYd2-19" value="- alta: Float&lt;div&gt;- media: Float&lt;/div&gt;&lt;div&gt;- bassa: Float&lt;/div&gt;" style="text;strokeColor=none;fillColor=none;align=left;verticalAlign=top;spacingLeft=4;spacingRight=4;overflow=hidden;rotatable=0;points=[[0,0.5],[1,0.5]];portConstraint=eastwest;whiteSpace=wrap;html=1;" parent="UMm1ady6yWFBfkZKAYd2-18" vertex="1">
          <mxGeometry y="26" width="160" height="54" as="geometry" />
        </mxCell>
        <mxCell id="UMm1ady6yWFBfkZKAYd2-20" value="" style="line;strokeWidth=1;fillColor=none;align=left;verticalAlign=middle;spacingTop=-1;spacingLeft=3;spacingRight=3;rotatable=0;labelPosition=right;points=[];portConstraint=eastwest;strokeColor=#7EA6E0;dashed=1;" parent="UMm1ady6yWFBfkZKAYd2-18" vertex="1">
          <mxGeometry y="80" width="160" height="8" as="geometry" />
        </mxCell>
        <mxCell id="apWO-U3HZGpR7ALacPeS-2" style="line;strokeWidth=1;fillColor=none;align=left;verticalAlign=middle;spacingTop=-1;spacingLeft=3;spacingRight=3;rotatable=0;labelPosition=right;points=[];portConstraint=eastwest;strokeColor=none;dashed=1;" vertex="1" parent="UMm1ady6yWFBfkZKAYd2-18">
          <mxGeometry y="88" width="160" height="22" as="geometry" />
        </mxCell>
        <mxCell id="UMm1ady6yWFBfkZKAYd2-17" style="edgeStyle=orthogonalEdgeStyle;rounded=0;orthogonalLoop=1;jettySize=auto;html=1;entryX=0;entryY=0.5;entryDx=0;entryDy=0;endArrow=open;startFill=0;endFill=0;" parent="1" source="UMm1ady6yWFBfkZKAYd2-13" target="UMm1ady6yWFBfkZKAYd2-19" edge="1">
          <mxGeometry relative="1" as="geometry">
            <mxPoint x="580" y="99" as="targetPoint" />
          </mxGeometry>
        </mxCell>
        <mxCell id="UMm1ady6yWFBfkZKAYd2-23" value="1" style="text;strokeColor=none;align=center;fillColor=none;html=1;verticalAlign=middle;whiteSpace=wrap;rounded=0;" parent="1" vertex="1">
          <mxGeometry x="160" y="190" width="20" height="20" as="geometry" />
        </mxCell>
        <mxCell id="UMm1ady6yWFBfkZKAYd2-24" value="0..1" style="text;strokeColor=none;align=center;fillColor=none;html=1;verticalAlign=middle;whiteSpace=wrap;rounded=0;" parent="1" vertex="1">
          <mxGeometry x="170" y="250" width="20" height="20" as="geometry" />
        </mxCell>
        <mxCell id="UMm1ady6yWFBfkZKAYd2-25" value="0..1" style="text;strokeColor=none;align=center;fillColor=none;html=1;verticalAlign=middle;whiteSpace=wrap;rounded=0;" parent="1" vertex="1">
          <mxGeometry x="340" y="80" width="20" height="20" as="geometry" />
        </mxCell>
        <mxCell id="UMm1ady6yWFBfkZKAYd2-26" value="1" style="text;strokeColor=none;align=center;fillColor=none;html=1;verticalAlign=middle;whiteSpace=wrap;rounded=0;" parent="1" vertex="1">
          <mxGeometry x="280" y="80" width="20" height="20" as="geometry" />
        </mxCell>
        <mxCell id="UMm1ady6yWFBfkZKAYd2-27" value="1" style="text;strokeColor=none;align=center;fillColor=none;html=1;verticalAlign=middle;whiteSpace=wrap;rounded=0;" parent="1" vertex="1">
          <mxGeometry x="530" y="89" width="20" height="20" as="geometry" />
        </mxCell>
        <mxCell id="UMm1ady6yWFBfkZKAYd2-28" value="1" style="text;strokeColor=none;align=center;fillColor=none;html=1;verticalAlign=middle;whiteSpace=wrap;rounded=0;" parent="1" vertex="1">
          <mxGeometry x="590" y="89" width="20" height="20" as="geometry" />
        </mxCell>
        <mxCell id="UMm1ady6yWFBfkZKAYd2-11" style="edgeStyle=orthogonalEdgeStyle;rounded=0;orthogonalLoop=1;jettySize=auto;html=1;endArrow=open;startFill=0;endFill=0;exitX=0.502;exitY=1;exitDx=0;exitDy=0;exitPerimeter=0;" parent="1" source="UMm1ady6yWFBfkZKAYd2-4" target="UMm1ady6yWFBfkZKAYd2-7" edge="1">
          <mxGeometry relative="1" as="geometry" />
        </mxCell>
        <mxCell id="UMm1ady6yWFBfkZKAYd2-31" value="Posizione" style="swimlane;fontStyle=1;align=center;verticalAlign=top;childLayout=stackLayout;horizontal=1;startSize=26;horizontalStack=0;resizeParent=1;resizeParentMax=0;resizeLast=0;collapsible=1;marginBottom=0;whiteSpace=wrap;html=1;fillColor=#7EA6E0;swimlaneFillColor=#E6E6E6;strokeColor=none;fontColor=#FFFFFF;" parent="1" vertex="1">
          <mxGeometry x="370" y="210" width="160" height="100" as="geometry" />
        </mxCell>
        <mxCell id="UMm1ady6yWFBfkZKAYd2-32" value="- latitudine: float&lt;div&gt;-logitudine: float&lt;/div&gt;" style="text;strokeColor=none;fillColor=none;align=left;verticalAlign=top;spacingLeft=4;spacingRight=4;overflow=hidden;rotatable=0;points=[[0,0.5],[1,0.5]];portConstraint=eastwest;whiteSpace=wrap;html=1;" parent="UMm1ady6yWFBfkZKAYd2-31" vertex="1">
          <mxGeometry y="26" width="160" height="44" as="geometry" />
        </mxCell>
        <mxCell id="UMm1ady6yWFBfkZKAYd2-33" value="" style="line;strokeWidth=1;fillColor=none;align=left;verticalAlign=middle;spacingTop=-1;spacingLeft=3;spacingRight=3;rotatable=0;labelPosition=right;points=[];portConstraint=eastwest;strokeColor=#7EA6E0;dashed=1;" parent="UMm1ady6yWFBfkZKAYd2-31" vertex="1">
          <mxGeometry y="70" width="160" height="10" as="geometry" />
        </mxCell>
        <mxCell id="apWO-U3HZGpR7ALacPeS-4" style="line;strokeWidth=1;fillColor=none;align=left;verticalAlign=middle;spacingTop=-1;spacingLeft=3;spacingRight=3;rotatable=0;labelPosition=right;points=[];portConstraint=eastwest;strokeColor=none;dashed=1;" vertex="1" parent="UMm1ady6yWFBfkZKAYd2-31">
          <mxGeometry y="80" width="160" height="20" as="geometry" />
        </mxCell>
        <mxCell id="UMm1ady6yWFBfkZKAYd2-37" style="rounded=0;orthogonalLoop=1;jettySize=auto;html=1;entryX=0.01;entryY=0.336;entryDx=0;entryDy=0;entryPerimeter=0;endArrow=open;endFill=0;" parent="1" source="UMm1ady6yWFBfkZKAYd2-2" target="UMm1ady6yWFBfkZKAYd2-13" edge="1">
          <mxGeometry relative="1" as="geometry" />
        </mxCell>
        <mxCell id="UMm1ady6yWFBfkZKAYd2-39" value="1" style="text;strokeColor=none;align=center;fillColor=none;html=1;verticalAlign=middle;whiteSpace=wrap;rounded=0;" parent="1" vertex="1">
          <mxGeometry x="450" y="190" width="20" height="20" as="geometry" />
        </mxCell>
        <mxCell id="UMm1ady6yWFBfkZKAYd2-40" value="1" style="text;strokeColor=none;align=center;fillColor=none;html=1;verticalAlign=middle;whiteSpace=wrap;rounded=0;" parent="1" vertex="1">
          <mxGeometry x="450" y="160" width="20" height="20" as="geometry" />
        </mxCell>
      </root>
    </mxGraphModel>
  </diagram>
</mxfile>
